<svg width="48" height="48" viewBox="0 0 48 48" fill="none" xmlns="http://www.w3.org/2000/svg">
<rect width="48" height="48" rx="4" fill="#F9F9F9"/>
<path d="M35.2 19.66L26.32 24.48C25.5 24.92 25 25.8 25 26.78V36.1C25 37.1 25.98 37.76 26.8 37.3L35.68 32.48C36.48 32.04 37 31.16 37 30.18V20.88C37 19.86 36.02 19.22 35.2 19.66ZM21.68 24.46L12.8 19.66C11.98 19.22 11 19.86 11 20.86V30.22C11 31.2 11.5 32.08 12.32 32.52L21.2 37.32C22.02 37.76 23 37.1 23 36.1V26.76C23 25.78 22.5 24.9 21.68 24.46ZM34.38 17.48C34.8 17.26 35 16.88 34.96 16.52C35 16.14 34.8 15.78 34.38 15.56L25.34 10.84C24.94 10.62 24.46 10.52 23.98 10.52C23.5 10.52 23.02 10.62 22.62 10.84L13.58 15.54C13.16 15.76 12.98 16.14 13 16.5C12.98 16.88 13.16 17.26 13.58 17.48L22.62 22.18C23.02 22.4 23.5 22.5 23.98 22.5C24.46 22.5 24.94 22.4 25.34 22.18L34.38 17.48Z" fill="#99A6B0"/>
</svg>
